<svg version="1" xmlns="http://www.w3.org/2000/svg" width="1365.333" height="1365.333" viewBox="0 0 1024.000000 1024.000000"><path d="M109 325.6c-1.4.2-4.4.7-6.7 1l-4.3.5v116.6l5.3.7c8.9 1 29.8.6 37.9-.8 14.4-2.6 23.8-8.8 28.9-19.2 3.4-7 3.5-20.9.1-27.2-3.2-6.1-9.4-11.7-15.7-14.3l-5.4-2.2 3.7-2c11.6-6 17.4-17.5 15.2-29.5-1.3-7-4.7-12.4-10.6-16.5-8.1-5.7-13.2-6.9-30.4-7.2-8.5-.2-16.6-.1-18 .1zm30 13c7.5 2.2 12.6 7.4 13.5 13.8 1.4 9.1-2.6 16.5-11.2 20.7-3.9 1.8-7 2.3-16.5 2.7l-11.8.4v-19c0-17.3.2-19.1 1.8-19.5 4.3-1.2 19.2-.6 24.2.9zm.7 50.9c13.4 4 19.4 13.7 16.3 26.6-1.6 6.5-6.8 11.9-13.6 14.3-5.3 1.9-22.5 3.3-26.8 2.2l-2.6-.6v-44h10.8c6.7 0 12.8.6 15.9 1.5zM318 358.6c-5.7 2.5-9.9 6.2-13 11.7l-3 5.2V359h-14.3l.6 14.2c.4 7.9.7 27 .7 42.5V444h14.9l.3-26.8c.4-29.6 1-32.6 7.1-39.1 4.1-4.3 8.4-6.1 14.7-6.1h5.1l-.3-7.3-.3-7.2-4.5-.2c-2.5-.2-6.1.4-8 1.3zM365.9 358.3c-11.5 3.3-22.1 14-25.9 26.4-6.1 19.8-2.1 39.6 10.3 51 8.7 7.9 14.3 9.7 30.2 9.7 9.8.1 14.5-.4 19.3-1.8 3.4-1 6.5-2.3 6.8-2.8.3-.5 0-3.2-.6-5.9-1.1-4.5-1.5-5-3.4-4.4-6.6 1.9-15.8 3.5-20.7 3.5-16.1 0-27.1-9.4-29.4-25.3l-.7-4.7H412v-6.5c0-17.4-7-30.9-19.5-37.2-6.1-3.1-19.2-4.1-26.6-2zm16.3 10.7c7.7 2.2 13.4 9.7 14.5 19.1l.6 4.9h-45.1l.9-4.1c3.4-15 15.9-23.5 29.1-19.9zM444.3 359c-6.7 1.8-8.8 2.6-12.1 4.8-1.9 1.3 1.5 10.6 3.7 9.8.9-.3 4.2-1.4 7.5-2.6 3.6-1.3 8.3-2.1 12.5-2.1 11.1-.1 16.1 3 18.6 11.5 2.8 9.2 2.7 9.2-7.3 9.9-20.4 1.3-34.1 8-39.8 19.3-2.5 5.1-2.6 18.4-.2 22.9 2.2 4.2 6.5 8.3 11.3 10.8 3.2 1.7 5.7 2.2 12.5 2.2 9.9 0 16.7-2.5 22.1-8.1 3.7-3.9 4.9-3.2 4.9 2.8v3.8h13.7l-.4-22.3c-.7-42.8-.6-41.8-4.2-49.2-3.8-7.6-8.6-11.7-16.4-14-6.8-2-17.6-1.8-26.4.5zm31.7 51c0 7-.4 10-1.9 12.8-3.6 7-10.5 11.4-18.1 11.5-9.9.2-15-4.8-15-14.5 0-11.8 10-18.4 28.8-18.7l6.2-.1v9zM191.2 390.7c.3 26.6.7 32.5 2.1 36.1 2.8 7.2 7.2 12.6 12.9 15.7 4.8 2.7 6.2 3 14.3 3 10.9 0 16.1-2.2 23.6-9.8l4.9-5V444h14v-85h-15.9l-.3 29.3-.3 29.4-3 4.8c-4.3 7-11.8 10.8-19.8 10.3-6.8-.5-10.2-2.7-13.7-8.9-2.5-4.4-2.5-4.5-2.8-34.7l-.3-30.2h-16l.3 31.7zM515.2 390.7c.3 26.6.7 32.5 2.1 36.1 2.8 7.2 7.2 12.6 12.9 15.7 4.8 2.7 6.2 3 14.3 3 10.9 0 16.1-2.2 23.6-9.8l4.9-5V444h14v-85h-15.9l-.3 29.3-.3 29.4-3 4.8c-4.3 7-11.8 10.8-19.8 10.3-6.8-.5-10.2-2.7-13.7-8.9-2.5-4.4-2.5-4.5-2.8-34.7l-.3-30.2h-16l.3 31.7zM204 592v62h15V622.3l4-4.4c3.3-3.6 4.2-4.1 4.9-2.9.5.8 7 9.8 14.3 20l13.4 18.5 9.7.3 9.7.3-18.5-24.8c-10.1-13.6-18.4-25-18.4-25.3 0-.3 7.1-8.2 15.9-17.5l15.9-17-9.2-.3c-8.7-.3-9.3-.2-11.2 2.1-1.1 1.3-8.3 9.9-16 19.1l-14 16.7-.3-38.5-.2-38.6h-15v62zM60 595v59h66v-13H75v-42h46v-13H75v-37h49v-13H60v59zM573.4 536.8c-6 .9-8.8 10-4.4 14.7 3 3.2 6.4 3.9 10.5 1.9 9.5-4.5 4.5-18.2-6.1-16.6zM176 568.6c-5.7 2.5-9.9 6.2-13 11.7l-3 5.2V569h-14.3l.6 10.7c.4 5.8.7 24.9.7 42.5V654h14.9l.3-26.8c.4-29.6 1-32.6 7.1-39.1 4.1-4.3 8.4-6.1 14.7-6.1h5.1l-.3-7.3-.3-7.2-4.5-.2c-2.5-.2-6.1.4-8 1.3zM306.9 568.8c-15.8 5.3-25.7 19.3-27.5 39.1-1.4 14.9 3.5 29.1 12.9 37.8 8.7 7.9 14.4 9.8 29.7 9.8 12.3 0 25.1-2.2 26.6-4.7.3-.5 0-3.2-.6-5.9-1.1-4.5-1.5-5-3.4-4.4-6.6 1.9-15.8 3.5-20.7 3.5-16.1 0-27.1-9.4-29.4-25.3l-.7-4.7H354v-6.5c0-17.7-7.7-31.9-20.5-37.6-6.9-3.1-19-3.6-26.6-1.1zm17.3 10.2c7.7 2.2 13.4 9.7 14.5 19.1l.6 4.9h-45.1l.9-4.1c3.4-15 15.9-23.5 29.1-19.9zM405 568.6c-5.9 2.1-9.7 4.7-14.2 9.8l-3.7 4.1-.1-6.8V569h-14v85h16v-27.4c0-30.4.5-33.3 6.3-39.5 9.6-10.1 25-9.3 31.4 1.6l2.8 4.8.3 30.2.3 30.3H446v-28.5c0-34.8-1-40.4-8.6-49.4-6.4-7.7-22-11.3-32.4-7.5zM502 568.6c-5.9 2.1-9.7 4.7-14.2 9.8l-3.7 4.1-.1-6.8V569h-14v85h16v-27.4c0-30.4.5-33.3 6.3-39.5 9.6-10.1 25-9.3 31.4 1.6l2.8 4.8.3 30.2.3 30.3H543v-28.5c0-34.8-1-40.4-8.6-49.4-6.4-7.7-22-11.3-32.4-7.5zM640 568.6c-5.9 2.1-9.7 4.7-14.2 9.8l-3.7 4.1-.1-6.8V569h-14v85h16v-27.4c0-30.4.5-33.3 6.3-39.5 9.6-10.1 25-9.3 31.4 1.6l2.8 4.8.3 30.2.3 30.3H681v-28.5c0-34.8-1-40.4-8.6-49.4-6.4-7.7-22-11.3-32.4-7.5zM726.4 568.8c-18.6 6.6-29.6 27.4-26.4 50.2 2 14.7 9.3 25.6 20.8 31.2 6 2.9 7.6 3.3 15.2 3.3 7.3 0 9.3-.4 14.2-2.8 3.2-1.6 7.4-4.7 9.4-7l3.6-4.2-.5 9.5c-.9 15.2-4.4 22.3-13.2 26.5-9.4 4.6-22.3 4.2-33.9-.9l-5.4-2.4-1.7 5.9c-1 3.3-1.6 6.2-1.2 6.5.3.3 3.6 1.7 7.4 3.1 9.4 3.4 23.2 4.2 33.6 1.9 13.6-3.1 22.3-10.7 26.8-23.6 2.4-7 2.5-8 3.2-72.3l.2-24.7H765v4.9c0 2.8-.4 5.2-.8 5.5-.4.2-2-1-3.5-2.9-6.4-8-23-11.8-34.3-7.7zm24.5 13.1c9.2 4.7 12.7 14.3 11.9 32.2-.5 9.3-.9 11.3-3.4 16-6.9 12.6-23.4 15.6-34.3 6.2-5.1-4.3-7.5-8.9-9.1-17.1-3.5-17.7 4.3-34.9 17.8-39.3 4.1-1.3 12.4-.3 17.1 2zM824.9 568.8c-15.8 5.3-25.7 19.3-27.5 39.1-1.4 14.9 3.5 29.1 12.9 37.8 8.7 7.9 14.4 9.8 29.7 9.8 12.3 0 25.1-2.2 26.6-4.7.3-.5 0-3.2-.6-5.9-1.1-4.5-1.5-5-3.4-4.4-6.6 1.9-15.8 3.5-20.7 3.5-16.1 0-27.1-9.4-29.4-25.3l-.7-4.7H872v-6.5c0-17.7-7.7-31.9-20.5-37.6-6.9-3.1-19-3.6-26.6-1.1zm17.3 10.2c7.7 2.2 13.4 9.7 14.5 19.1l.6 4.9h-45.1l.9-4.1c3.4-15 15.9-23.5 29.1-19.9zM923 568.6c-5.9 2.1-9.7 4.7-14.2 9.8l-3.7 4.1-.1-6.8V569h-14v85h16v-27.4c0-30.4.5-33.3 6.3-39.5 9.6-10.1 25-9.3 31.4 1.6l2.8 4.8.3 30.2.3 30.3H964v-28.5c0-34.8-1-40.4-8.6-49.4-6.4-7.7-22-11.3-32.4-7.5zM568 611.5V654h15v-85h-15v42.5z"/></svg>